<svg width="2138" height="1935" viewBox="0 0 2138 1935" fill="none" xmlns="http://www.w3.org/2000/svg">
<path d="M970.163 1586.09C928.76 1592.43 889.57 1563.95 888.291 1522.09C886.218 1454.23 895.21 1386.31 915.073 1321.04C942.316 1231.52 989.314 1149.26 1052.6 1080.32C1115.88 1011.39 1193.84 957.548 1280.71 922.77C1344.05 897.413 1410.95 882.661 1478.74 878.94C1520.56 876.644 1552.28 913.261 1549.49 955.054V955.054C1546.71 996.847 1510.4 1027.84 1468.7 1031.76C1423.66 1035.99 1379.33 1046.67 1337.09 1063.59C1271.3 1089.92 1212.26 1130.7 1164.33 1182.9C1116.41 1235.11 1080.81 1297.41 1060.18 1365.2C1046.94 1408.73 1040.07 1453.81 1039.7 1499.05C1039.35 1540.93 1011.57 1579.75 970.163 1586.09V1586.09Z" fill="white"/>
<path d="M522.338 1585.53C473.748 1591.67 428.982 1557.25 426.929 1508.31C421.557 1380.28 439.502 1252.08 480.145 1130.04C530.147 979.886 613.228 842.88 723.255 729.128C833.283 615.377 967.449 527.783 1115.85 472.813C1236.48 428.132 1364.01 405.93 1492.15 407.039C1541.12 407.463 1577.02 451.058 1572.49 499.827V499.827C1567.97 548.595 1524.71 583.989 1475.73 584.394C1374.11 585.234 1273.17 603.68 1177.46 639.134C1053.96 684.88 942.305 757.775 850.74 852.439C759.175 947.103 690.036 1061.12 648.424 1186.08C616.175 1282.92 601.097 1384.41 603.639 1486C604.865 1534.97 570.929 1579.38 522.338 1585.53V1585.53Z" fill="white"/>
<path d="M90.1232 1608.21C45.7146 1613.37 5.28874 1581.56 2.60821 1536.93C-8.75664 1347.72 17.0758 1157.84 78.9341 978.112C149.587 772.831 265.433 586.036 417.925 431.51C570.417 276.985 755.661 158.673 959.987 85.3068C1138.88 21.0726 1328.4 -7.27344 1517.75 1.58342C1562.41 3.67242 1594.75 43.6733 1590.18 88.1464V88.1464C1585.6 132.62 1545.83 164.694 1501.15 162.918C1335.96 156.353 1170.77 181.643 1014.7 237.684C833.189 302.859 668.628 407.96 533.163 545.232C397.698 682.503 294.787 848.442 232.023 1030.8C178.055 1187.6 154.955 1353.11 163.709 1518.2C166.076 1562.85 134.532 1603.04 90.1232 1608.21V1608.21Z" fill="white"/>
<rect x="1355" y="1336" width="256" height="256" rx="128" fill="white"/>
</svg>
